<?xml version="1.0" encoding="UTF-8" standalone="no"?><svg xmlns="http://www.w3.org/2000/svg" xmlns:xlink="http://www.w3.org/1999/xlink" contentScriptType="application/ecmascript" contentStyleType="text/css" height="241px" preserveAspectRatio="none" style="width:414px;height:241px;background:#FFFFFF;" version="1.1" viewBox="0 0 414 241" width="414px" zoomAndPan="magnify"><defs><filter height="300%" id="f1wiij40bn3v0p" width="300%" x="-1" y="-1"><feGaussianBlur result="blurOut" stdDeviation="2.0"/><feColorMatrix in="blurOut" result="blurOut2" type="matrix" values="0 0 0 0 0 0 0 0 0 0 0 0 0 0 0 0 0 0 .4 0"/><feOffset dx="4.0" dy="4.0" in="blurOut2" result="blurOut3"/><feBlend in="SourceGraphic" in2="blurOut3" mode="normal"/></filter></defs><g><line style="stroke:#A80036;stroke-width:1.0;stroke-dasharray:5.0,5.0;" x1="40" x2="40" y1="40.4883" y2="197.7305"/><line style="stroke:#A80036;stroke-width:1.0;stroke-dasharray:5.0,5.0;" x1="159.5" x2="159.5" y1="40.4883" y2="197.7305"/><rect fill="#FEFECE" filter="url(#f1wiij40bn3v0p)" height="30.4883" style="stroke:#A80036;stroke-width:1.5;" width="66" x="5" y="5"/><text fill="#000000" font-family="sans-serif" font-size="14" lengthAdjust="spacing" textLength="52" x="12" y="25.5352">Pay_API</text><rect fill="#FEFECE" filter="url(#f1wiij40bn3v0p)" height="30.4883" style="stroke:#A80036;stroke-width:1.5;" width="66" x="5" y="196.7305"/><text fill="#000000" font-family="sans-serif" font-size="14" lengthAdjust="spacing" textLength="52" x="12" y="217.2656">Pay_API</text><rect fill="#FEFECE" filter="url(#f1wiij40bn3v0p)" height="30.4883" style="stroke:#A80036;stroke-width:1.5;" width="69" x="123.5" y="5"/><text fill="#000000" font-family="sans-serif" font-size="14" lengthAdjust="spacing" textLength="55" x="130.5" y="25.5352">CFS_API</text><rect fill="#FEFECE" filter="url(#f1wiij40bn3v0p)" height="30.4883" style="stroke:#A80036;stroke-width:1.5;" width="69" x="123.5" y="196.7305"/><text fill="#000000" font-family="sans-serif" font-size="14" lengthAdjust="spacing" textLength="55" x="130.5" y="217.2656">CFS_API</text><polygon fill="#A80036" points="148,67.7988,158,71.7988,148,75.7988,152,71.7988" style="stroke:#A80036;stroke-width:1.0;"/><line style="stroke:#A80036;stroke-width:1.0;" x1="40" x2="154" y1="71.7988" y2="71.7988"/><text fill="#000000" font-family="sans-serif" font-size="13" lengthAdjust="spacing" textLength="96" x="47" y="67.0566">/rcpts/unapply</text><polygon fill="#A80036" points="51,94.4541,41,98.4541,51,102.4541,47,98.4541" style="stroke:#A80036;stroke-width:1.0;"/><line style="stroke:#A80036;stroke-width:1.0;" x1="45" x2="159" y1="98.4541" y2="98.4541"/><path d="M165,84.7988 L165,109.7988 L405,109.7988 L405,94.7988 L395,84.7988 L165,84.7988 " fill="#FBFB77" filter="url(#f1wiij40bn3v0p)" style="stroke:#A80036;stroke-width:1.0;"/><path d="M395,84.7988 L395,94.7988 L405,94.7988 L395,84.7988 " fill="#FBFB77" style="stroke:#A80036;stroke-width:1.0;"/><text fill="#000000" font-family="sans-serif" font-size="13" lengthAdjust="spacing" textLength="219" x="171" y="102.3672">Unapply the receipt on the invoice.</text><polygon fill="#A80036" points="148,136.4199,158,140.4199,148,144.4199,152,140.4199" style="stroke:#A80036;stroke-width:1.0;"/><line style="stroke:#A80036;stroke-width:1.0;" x1="40" x2="154" y1="140.4199" y2="140.4199"/><text fill="#000000" font-family="sans-serif" font-size="13" lengthAdjust="spacing" textLength="66" x="47" y="135.6777">/invs/adjs</text><polygon fill="#A80036" points="51,163.0752,41,167.0752,51,171.0752,47,167.0752" style="stroke:#A80036;stroke-width:1.0;"/><line style="stroke:#A80036;stroke-width:1.0;" x1="45" x2="159" y1="167.0752" y2="167.0752"/><path d="M165,153.4199 L165,178.4199 L324,178.4199 L324,163.4199 L314,153.4199 L165,153.4199 " fill="#FBFB77" filter="url(#f1wiij40bn3v0p)" style="stroke:#A80036;stroke-width:1.0;"/><path d="M314,153.4199 L314,163.4199 L324,163.4199 L314,153.4199 " fill="#FBFB77" style="stroke:#A80036;stroke-width:1.0;"/><text fill="#000000" font-family="sans-serif" font-size="13" lengthAdjust="spacing" textLength="138" x="171" y="170.9883">Adjust invoice to zero</text><!--MD5=[3a5adc74b5fd26d3d7e198a4770cb7b8]
@startuml fas/cancel_transaction

Pay_API -> CFS_API: /rcpts/unapply
CFS_API -> Pay_API : 
note right
  Unapply the receipt on the invoice.
end note

Pay_API -> CFS_API: /invs/adjs
CFS_API -> Pay_API : 
note right
  Adjust invoice to zero
end note


@enduml

PlantUML version 1.2021.10(Mon Aug 30 06:43:48 PDT 2021)
(GPL source distribution)
Java Runtime: OpenJDK Runtime Environment
JVM: OpenJDK 64-Bit Server VM
Default Encoding: UTF-8
Language: en
Country: CA
--></g></svg>