<?xml version="1.0" encoding="UTF-8" standalone="no"?><svg xmlns="http://www.w3.org/2000/svg" xmlns:xlink="http://www.w3.org/1999/xlink" contentScriptType="application/ecmascript" contentStyleType="text/css" height="241px" preserveAspectRatio="none" style="width:523px;height:241px;background:#FFFFFF;" version="1.1" viewBox="0 0 523 241" width="523px" zoomAndPan="magnify"><defs><filter height="300%" id="f1tc1pklth1m2w" width="300%" x="-1" y="-1"><feGaussianBlur result="blurOut" stdDeviation="2.0"/><feColorMatrix in="blurOut" result="blurOut2" type="matrix" values="0 0 0 0 0 0 0 0 0 0 0 0 0 0 0 0 0 0 .4 0"/><feOffset dx="4.0" dy="4.0" in="blurOut2" result="blurOut3"/><feBlend in="SourceGraphic" in2="blurOut3" mode="normal"/></filter></defs><g><line style="stroke:#A80036;stroke-width:1.0;stroke-dasharray:5.0,5.0;" x1="40" x2="40" y1="40.4883" y2="197.7305"/><line style="stroke:#A80036;stroke-width:1.0;stroke-dasharray:5.0,5.0;" x1="163.5" x2="163.5" y1="40.4883" y2="197.7305"/><rect fill="#FEFECE" filter="url(#f1tc1pklth1m2w)" height="30.4883" style="stroke:#A80036;stroke-width:1.5;" width="66" x="5" y="5"/><text fill="#000000" font-family="sans-serif" font-size="14" lengthAdjust="spacing" textLength="52" x="12" y="25.5352">Pay_API</text><rect fill="#FEFECE" filter="url(#f1tc1pklth1m2w)" height="30.4883" style="stroke:#A80036;stroke-width:1.5;" width="66" x="5" y="196.7305"/><text fill="#000000" font-family="sans-serif" font-size="14" lengthAdjust="spacing" textLength="52" x="12" y="217.2656">Pay_API</text><rect fill="#FEFECE" filter="url(#f1tc1pklth1m2w)" height="30.4883" style="stroke:#A80036;stroke-width:1.5;" width="69" x="127.5" y="5"/><text fill="#000000" font-family="sans-serif" font-size="14" lengthAdjust="spacing" textLength="55" x="134.5" y="25.5352">CFS_API</text><rect fill="#FEFECE" filter="url(#f1tc1pklth1m2w)" height="30.4883" style="stroke:#A80036;stroke-width:1.5;" width="69" x="127.5" y="196.7305"/><text fill="#000000" font-family="sans-serif" font-size="14" lengthAdjust="spacing" textLength="55" x="134.5" y="217.2656">CFS_API</text><polygon fill="#A80036" points="152,67.7988,162,71.7988,152,75.7988,156,71.7988" style="stroke:#A80036;stroke-width:1.0;"/><line style="stroke:#A80036;stroke-width:1.0;" x1="40" x2="158" y1="71.7988" y2="71.7988"/><text fill="#000000" font-family="sans-serif" font-size="13" lengthAdjust="spacing" textLength="100" x="47" y="67.0566">/rcpts/reverse ?</text><polygon fill="#A80036" points="51,94.4541,41,98.4541,51,102.4541,47,98.4541" style="stroke:#A80036;stroke-width:1.0;"/><line style="stroke:#A80036;stroke-width:1.0;" x1="45" x2="163" y1="98.4541" y2="98.4541"/><path d="M169,84.7988 L169,109.7988 L514,109.7988 L514,94.7988 L504,84.7988 L169,84.7988 " fill="#FBFB77" filter="url(#f1tc1pklth1m2w)" style="stroke:#A80036;stroke-width:1.0;"/><path d="M504,84.7988 L504,94.7988 L514,94.7988 L504,84.7988 " fill="#FBFB77" style="stroke:#A80036;stroke-width:1.0;"/><text fill="#000000" font-family="sans-serif" font-size="13" lengthAdjust="spacing" textLength="324" x="175" y="102.3672">Reverse the receipt. Which will unapply all invoices.</text><polygon fill="#A80036" points="152,136.4199,162,140.4199,152,144.4199,156,140.4199" style="stroke:#A80036;stroke-width:1.0;"/><line style="stroke:#A80036;stroke-width:1.0;" x1="40" x2="158" y1="140.4199" y2="140.4199"/><text fill="#000000" font-family="sans-serif" font-size="13" lengthAdjust="spacing" textLength="33" x="47" y="135.6777">/invs</text><polygon fill="#A80036" points="51,163.0752,41,167.0752,51,171.0752,47,167.0752" style="stroke:#A80036;stroke-width:1.0;"/><line style="stroke:#A80036;stroke-width:1.0;" x1="45" x2="163" y1="167.0752" y2="167.0752"/><path d="M169,153.4199 L169,178.4199 L346,178.4199 L346,163.4199 L336,153.4199 L169,153.4199 " fill="#FBFB77" filter="url(#f1tc1pklth1m2w)" style="stroke:#A80036;stroke-width:1.0;"/><path d="M336,153.4199 L336,163.4199 L346,163.4199 L336,153.4199 " fill="#FBFB77" style="stroke:#A80036;stroke-width:1.0;"/><text fill="#000000" font-family="sans-serif" font-size="13" lengthAdjust="spacing" textLength="156" x="175" y="170.9883">New invoice for NSF fees</text><!--MD5=[14419529a734e35eaf8b4990ffbbdf16]
@startuml fas/nsf

Pay_API -> CFS_API: /rcpts/reverse ?
CFS_API -> Pay_API : 
note right
  Reverse the receipt. Which will unapply all invoices.
end note

Pay_API -> CFS_API: /invs
CFS_API -> Pay_API : 
note right
  New invoice for NSF fees
end note


@enduml

PlantUML version 1.2021.10(Mon Aug 30 06:43:48 PDT 2021)
(GPL source distribution)
Java Runtime: OpenJDK Runtime Environment
JVM: OpenJDK 64-Bit Server VM
Default Encoding: UTF-8
Language: en
Country: CA
--></g></svg>