<?xml version="1.0" encoding="UTF-8" standalone="no"?><svg xmlns="http://www.w3.org/2000/svg" xmlns:xlink="http://www.w3.org/1999/xlink" contentScriptType="application/ecmascript" contentStyleType="text/css" height="241px" preserveAspectRatio="none" style="width:618px;height:241px;background:#FFFFFF;" version="1.1" viewBox="0 0 618 241" width="618px" zoomAndPan="magnify"><defs><filter height="300%" id="f14qhda4xqskgv" width="300%" x="-1" y="-1"><feGaussianBlur result="blurOut" stdDeviation="2.0"/><feColorMatrix in="blurOut" result="blurOut2" type="matrix" values="0 0 0 0 0 0 0 0 0 0 0 0 0 0 0 0 0 0 .4 0"/><feOffset dx="4.0" dy="4.0" in="blurOut2" result="blurOut3"/><feBlend in="SourceGraphic" in2="blurOut3" mode="normal"/></filter></defs><g><line style="stroke:#A80036;stroke-width:1.0;stroke-dasharray:5.0,5.0;" x1="40" x2="40" y1="40.4883" y2="197.7305"/><line style="stroke:#A80036;stroke-width:1.0;stroke-dasharray:5.0,5.0;" x1="143.5" x2="143.5" y1="40.4883" y2="197.7305"/><rect fill="#FEFECE" filter="url(#f14qhda4xqskgv)" height="30.4883" style="stroke:#A80036;stroke-width:1.5;" width="66" x="5" y="5"/><text fill="#000000" font-family="sans-serif" font-size="14" lengthAdjust="spacing" textLength="52" x="12" y="25.5352">Pay_API</text><rect fill="#FEFECE" filter="url(#f14qhda4xqskgv)" height="30.4883" style="stroke:#A80036;stroke-width:1.5;" width="66" x="5" y="196.7305"/><text fill="#000000" font-family="sans-serif" font-size="14" lengthAdjust="spacing" textLength="52" x="12" y="217.2656">Pay_API</text><rect fill="#FEFECE" filter="url(#f14qhda4xqskgv)" height="30.4883" style="stroke:#A80036;stroke-width:1.5;" width="69" x="107.5" y="5"/><text fill="#000000" font-family="sans-serif" font-size="14" lengthAdjust="spacing" textLength="55" x="114.5" y="25.5352">CFS_API</text><rect fill="#FEFECE" filter="url(#f14qhda4xqskgv)" height="30.4883" style="stroke:#A80036;stroke-width:1.5;" width="69" x="107.5" y="196.7305"/><text fill="#000000" font-family="sans-serif" font-size="14" lengthAdjust="spacing" textLength="55" x="114.5" y="217.2656">CFS_API</text><polygon fill="#A80036" points="132,67.7988,142,71.7988,132,75.7988,136,71.7988" style="stroke:#A80036;stroke-width:1.0;"/><line style="stroke:#A80036;stroke-width:1.0;" x1="40" x2="138" y1="71.7988" y2="71.7988"/><text fill="#000000" font-family="sans-serif" font-size="13" lengthAdjust="spacing" textLength="33" x="47" y="67.0566">/invs</text><polygon fill="#A80036" points="51,94.4541,41,98.4541,51,102.4541,47,98.4541" style="stroke:#A80036;stroke-width:1.0;"/><line style="stroke:#A80036;stroke-width:1.0;" x1="45" x2="143" y1="98.4541" y2="98.4541"/><path d="M149,84.7988 L149,109.7988 L364,109.7988 L364,94.7988 L354,84.7988 L149,84.7988 " fill="#FBFB77" filter="url(#f14qhda4xqskgv)" style="stroke:#A80036;stroke-width:1.0;"/><path d="M354,84.7988 L354,94.7988 L364,94.7988 L354,84.7988 " fill="#FBFB77" style="stroke:#A80036;stroke-width:1.0;"/><text fill="#000000" font-family="sans-serif" font-size="13" lengthAdjust="spacing" textLength="194" x="155" y="102.3672">Create invoice against the site.</text><polygon fill="#A80036" points="132,136.4199,142,140.4199,132,144.4199,136,140.4199" style="stroke:#A80036;stroke-width:1.0;"/><line style="stroke:#A80036;stroke-width:1.0;" x1="40" x2="138" y1="140.4199" y2="140.4199"/><text fill="#000000" font-family="sans-serif" font-size="13" lengthAdjust="spacing" textLength="80" x="47" y="135.6777">/rcpts/apply</text><polygon fill="#A80036" points="51,163.0752,41,167.0752,51,171.0752,47,167.0752" style="stroke:#A80036;stroke-width:1.0;"/><line style="stroke:#A80036;stroke-width:1.0;" x1="45" x2="143" y1="167.0752" y2="167.0752"/><path d="M149,153.4199 L149,178.4199 L609,178.4199 L609,163.4199 L599,153.4199 L149,153.4199 " fill="#FBFB77" filter="url(#f14qhda4xqskgv)" style="stroke:#A80036;stroke-width:1.0;"/><path d="M599,153.4199 L599,163.4199 L609,163.4199 L599,153.4199 " fill="#FBFB77" style="stroke:#A80036;stroke-width:1.0;"/><text fill="#000000" font-family="sans-serif" font-size="13" lengthAdjust="spacing" textLength="439" x="155" y="170.9883">Call apply receipt with the routing slip receipt and invoice as payload.</text><!--MD5=[c124bd22033be682ea77a80642370945]
@startuml fas/routing_slip_transaction

Pay_API -> CFS_API: /invs
CFS_API -> Pay_API : 
note right
  Create invoice against the site.
end note

Pay_API -> CFS_API: /rcpts/apply
CFS_API -> Pay_API : 
note right
  Call apply receipt with the routing slip receipt and invoice as payload.
end note


@enduml

PlantUML version 1.2021.10(Mon Aug 30 06:43:48 PDT 2021)
(GPL source distribution)
Java Runtime: OpenJDK Runtime Environment
JVM: OpenJDK 64-Bit Server VM
Default Encoding: UTF-8
Language: en
Country: CA
--></g></svg>